<svg width="121" height="121" viewBox="0 0 121 121" fill="none" xmlns="http://www.w3.org/2000/svg">
<g clip-path="url(#clip0_6_662)">
<path d="M58.498 85.1307C54.9429 85.1307 49.7556 83.4259 44.8873 80.6466C42.1956 79.1067 39.8732 77.0814 38.4852 74.1482C38.0586 73.3979 37.8046 72.5565 37.7427 71.6889C37.7651 70.8501 37.7936 70.067 38.5843 69.7163C38.9848 69.5723 39.4166 69.548 39.8299 69.6462C40.2432 69.7444 40.6212 69.9611 40.9204 70.2714C41.8778 71.2256 42.3983 72.6945 43.4262 73.516C50.4103 79.1005 58.1374 81.5446 66.8736 78.7544C70.9441 77.454 73.7684 74.5021 75.904 70.7857C76.4185 69.8898 76.7883 68.7522 77.548 68.1991C78.3993 67.5799 79.846 66.9749 80.6125 67.3304C81.379 67.6859 81.9985 69.2308 82.0098 70.262C82.021 71.3822 81.4083 72.6059 80.809 73.6223C76.2033 81.4378 69.4104 85.222 58.498 85.1307Z" fill="black"/>
<path d="M36.8439 36.5645C42.6528 36.4314 46.184 38.4236 49.1341 41.6796C49.6588 42.246 50.0691 42.9144 50.3413 43.6461C51.0289 45.625 49.6587 47.332 47.7111 46.7002C46.3049 46.1544 45.0177 45.3257 43.9245 44.2621C41.2643 41.8857 38.3706 41.2539 34.9806 42.2112C29.9959 43.6187 26.0422 46.2117 24.0108 51.3618C23.5482 52.534 22.8021 53.6208 21.339 53.1202C19.7773 52.586 19.5975 51.0557 20.112 49.8699C21.1307 47.5228 22.1774 45.0468 23.7914 43.1454C27.5419 38.7296 32.6718 37.0584 36.8439 36.5645Z" fill="black"/>
<path d="M97.0165 43.1709C96.7525 43.5316 96.3205 44.7148 95.5945 44.9571C95.1243 45.0492 94.6405 45.0341 94.1763 44.9128C93.7128 44.7914 93.28 44.5668 92.9095 44.2546C92.0628 43.4882 91.582 42.2708 91.0068 41.2108C90.652 40.4594 90.0775 39.8423 89.3643 39.4471C88.6503 39.0519 87.8343 38.8986 87.0318 39.009C82.6 39.4032 78.6235 40.7159 75.7623 44.5891C75.328 45.1772 73.8001 45.1898 73.5142 44.9197C72.9047 44.3431 72.339 43.6092 72.5538 42.8821C72.9744 41.5671 73.697 40.3768 74.6599 39.4127C78.4915 35.5406 83.2555 33.992 88.5213 34.142C92.5023 34.2531 96.8673 38.6992 97.0165 43.1709Z" fill="black"/>
<path d="M33.4211 58.8867C34.2515 59.292 35.161 60.4987 35.1986 61.3842C35.1557 61.919 34.9928 62.4361 34.7229 62.8948C34.453 63.3535 34.0836 63.741 33.6436 64.0269C30.5024 65.6877 27.112 66.3514 23.6199 65.3579C22.3208 64.991 21.0628 64.3137 20.9648 62.5989C20.8699 60.9381 21.8693 59.9457 23.1704 59.4488C25.0384 58.7357 32.0966 58.2403 33.4211 58.8867Z" fill="black"/>
<path d="M90.9558 61.1809C88.639 60.241 88.0608 57.709 89.863 55.9674C90.898 54.9904 92.1603 54.307 93.5275 53.9841C94.966 53.6628 96.5485 53.8551 98.0478 54.0282C99.508 54.1969 100.864 54.7527 101.262 56.4806C101.489 57.2429 101.45 58.0628 101.152 58.7986C100.854 59.5343 100.317 60.1395 99.6333 60.5094C98.128 61.344 92.11 61.6496 90.9558 61.1809Z" fill="black"/>
<path d="M2.72181 43.7043C-2.53556 65.0342 2.06818 83.851 16.4147 99.6384C16.7885 100.046 17.1689 100.454 17.5498 100.848C25.2561 108.803 34.8551 113.714 42.4614 117.132C45.7259 118.603 62.4761 120.391 67.0083 119.694C93.9415 115.542 111.666 99.8613 117.839 73.627C119.017 68.4882 119.604 63.2236 119.588 57.9427C119.616 45.5024 114.542 31.0396 104.078 20.2077C103 19.2881 101.927 18.3356 100.889 17.4124C98.6373 15.4145 96.31 13.346 93.8748 11.5819C75.277 -1.93047 55.9532 -2.00608 36.4427 5.15927C18.7778 11.6426 7.43374 24.6134 2.72181 43.7043ZM36.5178 11.5462C53.6368 4.20311 70.8132 2.90718 87.5658 13.9053C90.6288 15.9184 98.7955 22.7315 100.081 23.7548L100.164 23.8176L100.232 23.8958C106.767 31.0502 114.251 44.1316 114.086 57.579C114.032 63.3289 113.277 69.0488 111.842 74.6047C107.586 90.571 97.4125 102.207 80.7385 110.166C63.789 118.543 39.4807 110.074 33.0131 105.667C25.8644 100.622 19.6094 94.3452 14.5215 87.1119C6.54194 75.4504 4.75174 58.6871 9.03912 43.3629C11.0459 36.2875 14.5528 29.7617 19.3056 24.2586C24.0583 18.7555 29.9379 14.4131 36.5178 11.5462Z" fill="black"/>
</g>
<defs>
<clipPath id="clip0_6_662">
<rect width="120" height="120" fill="white" transform="translate(0.267273 0.368896)"/>
</clipPath>
</defs>
</svg>
