<svg width="196" height="131" viewBox="0 0 196 131" fill="none" xmlns="http://www.w3.org/2000/svg">
<path d="M0 5.04689C11.1103 5.06095 15.8152 12.1466 20.8105 19.7623L61.7145 84.0125C63.6425 87.2188 65.5444 91.0947 65.4862 94.7238C65.3355 104.175 51.9408 107.634 43.9258 107.997C38.0596 108.261 32.2632 107.001 27.0456 104.853L23.788 108.695C25.6866 116.106 33.1779 125.108 43.4721 125.041C61.3512 124.923 70.7415 109.945 77.929 97.7477L91.2436 75.1524L52.595 14.4439C49.0252 9.01349 54.8853 5.06522 61.113 5.0307L62.5334 0H1.42595L0 5.04689ZM127.397 13.047C130.327 7.71545 136.21 5.07246 142.274 5.03837L143.697 0H99.762L98.3379 5.04092C105.772 5.07459 115.794 7.71843 116.461 13.047H127.397Z" fill="url(#paint0_linear_2_6)"/>
<path d="M101.206 119.302C100.737 119.302 100.503 119.175 100.503 118.921V107.466C100.503 107.205 100.737 107.075 101.206 107.075H101.343C101.805 107.075 102.036 107.205 102.036 107.466V118.921C102.036 119.175 101.805 119.302 101.343 119.302H101.206ZM107.323 119.302C107.075 119.302 106.896 119.272 106.786 119.214C106.675 119.149 106.62 119.051 106.62 118.921V112.827C106.62 112.072 106.584 111.528 106.512 111.196C106.44 110.858 106.405 110.672 106.405 110.639C106.405 110.496 106.512 110.395 106.727 110.337C106.948 110.272 107.157 110.239 107.352 110.239C107.515 110.239 107.635 110.327 107.713 110.503C107.791 110.678 107.847 110.858 107.879 111.04C107.918 111.222 107.944 111.339 107.957 111.391C108.322 110.981 108.742 110.662 109.217 110.434C109.699 110.206 110.184 110.093 110.672 110.093C111.558 110.093 112.248 110.343 112.743 110.844C113.244 111.339 113.495 112.023 113.495 112.895V118.921C113.495 119.051 113.439 119.149 113.328 119.214C113.218 119.272 113.042 119.302 112.801 119.302H112.723C112.489 119.302 112.316 119.272 112.205 119.214C112.095 119.149 112.039 119.051 112.039 118.921V113.042C112.039 112.508 111.883 112.094 111.571 111.802C111.265 111.502 110.832 111.352 110.272 111.352C109.881 111.352 109.487 111.463 109.09 111.684C108.7 111.899 108.361 112.195 108.075 112.573V118.921C108.075 119.051 108.019 119.149 107.909 119.214C107.798 119.272 107.625 119.302 107.391 119.302H107.323ZM120.295 119.37C119.715 119.37 119.198 119.194 118.742 118.843C118.286 118.491 118.059 117.869 118.059 116.977V111.44H117.189C117.066 111.44 116.975 111.401 116.916 111.323C116.864 111.238 116.838 111.105 116.838 110.923V110.708C116.838 110.525 116.864 110.395 116.916 110.317C116.975 110.233 117.066 110.19 117.189 110.19H118.059L118.264 108.374C118.277 108.12 118.462 107.993 118.82 107.993H118.986C119.169 107.993 119.302 108.025 119.387 108.091C119.471 108.149 119.514 108.244 119.514 108.374V110.19H120.969C121.092 110.19 121.18 110.233 121.232 110.317C121.291 110.395 121.32 110.525 121.32 110.708V110.923C121.32 111.105 121.291 111.238 121.232 111.323C121.18 111.401 121.092 111.44 120.969 111.44H119.514V116.841C119.514 117.316 119.595 117.648 119.758 117.837C119.927 118.025 120.155 118.12 120.441 118.12C120.663 118.12 120.832 118.107 120.949 118.081C121.073 118.055 121.154 118.042 121.193 118.042C121.297 118.042 121.382 118.146 121.447 118.354C121.519 118.563 121.555 118.729 121.555 118.852C121.555 119.197 121.135 119.37 120.295 119.37ZM128.765 119.37C127.326 119.37 126.255 118.996 125.552 118.247C124.856 117.492 124.507 116.339 124.507 114.79C124.507 113.253 124.849 112.088 125.533 111.294C126.216 110.493 127.222 110.093 128.55 110.093C129.735 110.093 130.627 110.477 131.226 111.245C131.832 112.013 132.134 113.139 132.134 114.624C132.134 114.689 132.099 114.78 132.027 114.897C131.962 115.008 131.88 115.109 131.783 115.2C131.692 115.285 131.614 115.327 131.548 115.327H126.07C126.142 116.297 126.389 117.007 126.812 117.456C127.242 117.899 127.886 118.12 128.746 118.12C129.227 118.12 129.641 118.061 129.986 117.944C130.337 117.827 130.676 117.684 131.002 117.514C131.034 117.501 131.083 117.479 131.148 117.446C131.213 117.414 131.259 117.397 131.285 117.397C131.356 117.397 131.438 117.456 131.529 117.573C131.627 117.684 131.708 117.811 131.773 117.954C131.845 118.091 131.88 118.192 131.88 118.257C131.88 118.4 131.737 118.559 131.451 118.735C131.164 118.911 130.78 119.061 130.298 119.184C129.823 119.308 129.312 119.37 128.765 119.37ZM130.582 114.077C130.582 112.254 129.888 111.343 128.502 111.343C127.011 111.343 126.2 112.254 126.07 114.077H130.582ZM136.591 119.302C136.344 119.302 136.165 119.272 136.054 119.214C135.943 119.149 135.888 119.051 135.888 118.921V112.827C135.888 112.072 135.852 111.528 135.78 111.196C135.709 110.858 135.673 110.672 135.673 110.639C135.673 110.496 135.78 110.395 135.995 110.337C136.217 110.272 136.425 110.239 136.62 110.239C136.777 110.239 136.894 110.324 136.972 110.493C137.05 110.656 137.118 110.887 137.177 111.186L137.226 111.391C137.844 110.525 138.515 110.093 139.237 110.093C139.57 110.093 139.82 110.154 139.989 110.278C140.159 110.395 140.243 110.555 140.243 110.757C140.243 110.952 140.208 111.16 140.136 111.382C140.071 111.596 139.993 111.704 139.902 111.704C139.856 111.704 139.775 111.684 139.657 111.645C139.553 111.6 139.449 111.567 139.345 111.548C139.241 111.522 139.107 111.509 138.945 111.509C138.678 111.509 138.424 111.587 138.183 111.743C137.948 111.899 137.75 112.072 137.587 112.261C137.424 112.449 137.343 112.553 137.343 112.573V118.921C137.343 119.051 137.288 119.149 137.177 119.214C137.066 119.272 136.894 119.302 136.659 119.302H136.591ZM144.27 119.302C144.023 119.302 143.844 119.272 143.733 119.214C143.623 119.149 143.567 119.051 143.567 118.921V112.827C143.567 112.072 143.531 111.528 143.46 111.196C143.388 110.858 143.352 110.672 143.352 110.639C143.352 110.496 143.46 110.395 143.675 110.337C143.896 110.272 144.104 110.239 144.3 110.239C144.462 110.239 144.583 110.327 144.661 110.503C144.739 110.678 144.794 110.858 144.827 111.04C144.866 111.222 144.892 111.339 144.905 111.391C145.27 110.981 145.69 110.662 146.165 110.434C146.647 110.206 147.132 110.093 147.62 110.093C148.505 110.093 149.195 110.343 149.69 110.844C150.192 111.339 150.442 112.023 150.442 112.895V118.921C150.442 119.051 150.387 119.149 150.276 119.214C150.165 119.272 149.99 119.302 149.749 119.302H149.671C149.436 119.302 149.264 119.272 149.153 119.214C149.042 119.149 148.987 119.051 148.987 118.921V113.042C148.987 112.508 148.831 112.094 148.518 111.802C148.212 111.502 147.779 111.352 147.22 111.352C146.829 111.352 146.435 111.463 146.038 111.684C145.647 111.899 145.309 112.195 145.022 112.573V118.921C145.022 119.051 144.967 119.149 144.856 119.214C144.746 119.272 144.573 119.302 144.339 119.302H144.27ZM156.51 119.438C156.022 119.438 155.566 119.376 155.143 119.253C154.72 119.129 154.381 118.979 154.127 118.803C153.88 118.621 153.756 118.462 153.756 118.325C153.756 118.26 153.789 118.156 153.854 118.012C153.925 117.869 154.007 117.742 154.098 117.632C154.196 117.514 154.284 117.456 154.362 117.456C154.381 117.456 154.44 117.488 154.537 117.553C154.798 117.723 155.071 117.866 155.358 117.983C155.651 118.1 155.999 118.159 156.403 118.159C157.536 118.159 158.102 117.69 158.102 116.753C158.102 116.486 158.047 116.261 157.936 116.079C157.832 115.897 157.653 115.737 157.399 115.6C157.151 115.457 156.81 115.32 156.373 115.19C155.748 115.008 155.26 114.8 154.909 114.565C154.564 114.331 154.319 114.057 154.176 113.745C154.033 113.426 153.961 113.042 153.961 112.593C153.961 112.111 154.082 111.678 154.323 111.294C154.57 110.91 154.912 110.61 155.348 110.395C155.791 110.18 156.289 110.073 156.842 110.073C157.226 110.073 157.594 110.109 157.946 110.18C158.304 110.252 158.59 110.346 158.805 110.464C159.026 110.574 159.137 110.692 159.137 110.815C159.137 110.906 159.105 111.03 159.039 111.186C158.981 111.336 158.906 111.469 158.815 111.587C158.724 111.697 158.642 111.753 158.571 111.753C158.558 111.753 158.476 111.714 158.327 111.636C158.177 111.551 157.985 111.476 157.75 111.411C157.523 111.339 157.269 111.303 156.989 111.303C156.546 111.303 156.178 111.404 155.885 111.606C155.599 111.802 155.455 112.065 155.455 112.397C155.455 112.788 155.56 113.1 155.768 113.335C155.976 113.569 156.321 113.761 156.803 113.911C157.545 114.139 158.112 114.367 158.502 114.594C158.893 114.822 159.17 115.102 159.332 115.434C159.502 115.76 159.586 116.19 159.586 116.723C159.586 117.231 159.45 117.693 159.176 118.11C158.903 118.52 158.532 118.846 158.063 119.087C157.594 119.321 157.077 119.438 156.51 119.438ZM164.004 119.302C163.542 119.302 163.311 119.175 163.311 118.921V106.596C163.311 106.343 163.542 106.216 164.004 106.216H164.072C164.541 106.216 164.775 106.343 164.775 106.596V111.284C165.114 110.939 165.511 110.656 165.967 110.434C166.422 110.206 166.908 110.093 167.422 110.093C168.151 110.093 168.792 110.298 169.346 110.708C169.906 111.118 170.186 111.847 170.186 112.895V118.921C170.186 119.175 169.954 119.302 169.492 119.302H169.424C168.955 119.302 168.721 119.175 168.721 118.921V113.042C168.721 112.514 168.571 112.101 168.271 111.802C167.972 111.502 167.533 111.352 166.953 111.352C166.569 111.352 166.214 111.443 165.889 111.626C165.57 111.808 165.303 112.007 165.088 112.221C164.88 112.43 164.775 112.547 164.775 112.573V118.921C164.775 119.175 164.541 119.302 164.072 119.302H164.004ZM180.71 122.886C180.241 122.886 180.007 122.759 180.007 122.505V112.827C180.007 112.072 179.971 111.528 179.9 111.196C179.828 110.858 179.792 110.672 179.792 110.639C179.792 110.496 179.9 110.395 180.114 110.337C180.336 110.272 180.544 110.239 180.739 110.239C180.902 110.239 181.023 110.327 181.101 110.503C181.179 110.678 181.234 110.858 181.267 111.04C181.306 111.222 181.332 111.339 181.345 111.391C182.172 110.525 183.093 110.093 184.109 110.093C184.805 110.093 185.407 110.291 185.915 110.688C186.423 111.085 186.81 111.636 187.077 112.339C187.344 113.042 187.478 113.843 187.478 114.741C187.478 115.718 187.328 116.554 187.028 117.251C186.736 117.947 186.322 118.475 185.788 118.833C185.254 119.191 184.639 119.37 183.943 119.37C183.441 119.37 182.995 119.295 182.605 119.145C182.221 118.996 181.84 118.777 181.462 118.491V122.505C181.462 122.759 181.234 122.886 180.778 122.886H180.71ZM183.611 118.091C184.385 118.071 184.968 117.788 185.359 117.241C185.749 116.694 185.945 115.9 185.945 114.858C185.945 113.738 185.759 112.876 185.388 112.27C185.023 111.658 184.496 111.352 183.806 111.352C183.422 111.352 183.021 111.456 182.605 111.665C182.195 111.873 181.814 112.169 181.462 112.553V117.309C182.1 117.83 182.816 118.091 183.611 118.091Z" fill="black"/>
<g clip-path="url(#clip0_2_6)">
<path d="M182.662 90.0367C179.01 86.2843 172.942 86.2405 169.14 89.9406C165.338 93.6408 165.216 99.7086 168.867 103.461C170.478 105.116 172.558 106.047 174.706 106.256L174.451 118.868C174.427 120.029 176.171 120.041 176.194 118.88L176.448 106.267C178.601 106.086 180.715 105.184 182.389 103.555C186.191 99.8546 186.313 93.7892 182.662 90.0367ZM181.408 91.2572C184.408 94.3407 184.309 99.2764 181.184 102.317C178.06 105.357 173.122 105.324 170.121 102.241C167.121 99.157 167.22 94.2189 170.345 91.1784C173.469 88.1379 178.407 88.1738 181.408 91.2572Z" fill="#E4115D"/>
</g>
<defs>
<linearGradient id="paint0_linear_2_6" x1="48.8172" y1="0" x2="48.8172" y2="127.589" gradientUnits="userSpaceOnUse">
<stop stop-color="#E5097F"/>
<stop offset="0.478431" stop-color="#E31E24"/>
<stop offset="1" stop-color="#FFED00"/>
</linearGradient>
<clipPath id="clip0_2_6">
<rect width="27.6341" height="27.9999" fill="white" transform="translate(176.066 82) rotate(45.7789)"/>
</clipPath>
</defs>
</svg>
