<svg width="60" height="60" viewBox="0 0 60 60" fill="none" xmlns="http://www.w3.org/2000/svg">
<path d="M14.0625 22.9688C14.0625 31.7344 21.2344 38.9062 30 38.9062C38.7656 38.9062 45.9375 31.7344 45.9375 22.9688C45.9375 14.2031 38.7656 7.03125 30 7.03125C21.2344 7.03125 14.0625 14.2031 14.0625 22.9688ZM42.1875 22.9688C42.1875 29.6719 36.7031 35.1562 30 35.1562C23.2969 35.1562 17.8125 29.6719 17.8125 22.9688C17.8125 16.2656 23.2969 10.7812 30 10.7812C36.7031 10.7812 42.1875 16.2656 42.1875 22.9688Z" fill="black"/>
<path d="M11.4375 55.9688C16.4062 51 22.9688 48.2812 30 48.2812C37.0312 48.2812 43.5937 51 48.5625 55.9688L51.2344 53.2969C45.5625 47.6719 38.0156 44.5312 30 44.5312C21.9844 44.5312 14.4375 47.6719 8.76562 53.2969L11.4375 55.9688Z" fill="black"/>
</svg>
