<svg width="142" height="134" viewBox="0 0 142 134" fill="none" xmlns="http://www.w3.org/2000/svg">
<g clip-path="url(#clip0_2_614)">
<path d="M98.1156 83.7641C102.85 89.0244 105.329 94.7717 105.227 101.384C105.086 110.493 100.094 117.35 93.081 122.981C84.9079 129.542 75.0305 132.309 64.4596 133.086C62.1444 133.211 59.8238 133.218 57.5077 133.108C56.5073 133.09 55.516 132.925 54.5702 132.618C50.7798 131.33 50.2037 128.698 53.2096 126.221C56.1606 123.791 59.3451 121.601 62.1877 119.069C64.366 117.114 66.3387 114.967 68.0787 112.658C69.9209 110.227 70.0831 107.422 68.9411 104.19C67.1207 104.984 65.3771 105.617 63.7745 106.478C60.4145 108.283 58.5191 108.208 55.6364 105.836C52.8356 103.53 50.0832 101.173 47.2969 98.8514C46.8823 98.5479 46.449 98.2678 45.9994 98.0128C44.3091 99.4773 42.738 100.938 41.0537 102.273C38.8218 104.043 36.608 104.089 35.1598 102.522C33.8023 101.056 34.0256 99.1176 35.9871 97.233C37.3789 95.8947 38.9694 94.7371 40.1447 93.7663C36.9844 90.15 33.7992 87.1847 31.5092 83.7057C28.833 79.6373 32.1404 76.0109 34.2072 72.0305C30.2619 71.7984 27.0175 72.4759 24.4096 74.3512C21.9209 76.2432 19.6766 78.4013 17.7223 80.7818C15.8292 82.9719 14.3568 85.4805 12.6762 87.834C11.0918 90.0532 9.46865 92.3857 6.13277 92.0632C3.82335 91.8401 0.603115 87.9395 0.38948 85.0079C-0.0946754 78.3243 0.81312 71.8199 4.14169 65.7782C10.2396 54.7136 19.8459 47.5187 32.3601 43.6694C37.6035 42.0568 42.8857 42.5703 48.2337 44.0978C48.5303 43.7778 48.8783 43.459 49.1566 43.0941C63.5991 24.1702 83.2805 12.158 106.589 5.02453C114.528 2.59542 122.559 0.384193 131.021 0.181626C133.134 0.131126 135.249 -0.0203964 137.362 0.00230025C140.117 0.0312384 141.491 0.947631 141.379 3.47093C141.237 8.35401 140.75 13.2229 139.92 18.0456C136.519 36.1818 127.216 51.7364 115.133 65.9228C110.431 71.4449 105.135 76.525 100.104 81.8014C99.5088 82.4232 98.8763 83.0146 98.1156 83.7641ZM51.0982 92.1816C54.2451 94.5262 56.537 96.3659 59.0007 97.9696C59.4195 98.1546 59.8769 98.2488 60.3398 98.2471C60.8026 98.2445 61.259 98.1459 61.6757 97.9566C65.5811 96.0158 69.5748 94.1588 73.2101 91.8246C86.1582 83.5111 97.8721 73.8519 107.719 62.3607C113.062 56.1265 117.949 49.5512 123.144 43.0033L93.0469 16.7989C92.0532 17.2346 91.0854 17.7196 90.1472 18.2521C84.2767 21.9046 78.2919 25.4134 72.6231 29.324C66.2686 33.7068 60.8914 39.0626 56.091 44.966C48.1296 54.7556 43.4424 66.1873 37.5515 77.0135C36.9657 78.0917 37.2943 80.2632 38.1246 81.2272C40.2857 83.7369 42.9619 85.8574 45.8657 88.5316C50.4046 84.1205 54.3988 79.9982 58.686 76.1585C61.1559 74.0795 63.8041 72.1946 66.6038 70.5229C68.0757 69.5855 69.9548 69.2661 71.3014 70.7057C72.666 72.1651 71.4907 73.5943 70.5315 74.7672C69.3976 76.092 68.1691 77.3433 66.8544 78.5121C64.131 81.0359 61.4016 83.5525 58.5959 85.9935C56.2423 88.0449 53.7767 89.9797 51.0982 92.1816ZM135.676 5.52331C122.798 5.5477 111.431 10.0365 99.8426 13.6895L99.6361 14.4413L126.29 35.5084C130.857 28.7221 134.359 17.5338 135.676 5.52331ZM71.8951 122.45C82.7389 120.535 91.1402 115.378 95.8611 105.927C99.0081 99.6199 96.8099 93.7334 93.1004 88.1366C86.8566 92.6052 80.8846 96.8811 74.9138 101.155C79.6167 108.937 77.2081 115.79 71.8951 122.45ZM44.9034 48.8403C29.3995 46.4571 7.96773 66.1124 9.35781 79.6061C15.6888 70.2324 23.813 64.5849 36.0385 66.6168L44.9034 48.8403Z" fill="black"/>
<path d="M13.467 121.533C13.9264 120.754 14.4196 119.336 15.4037 118.351C19.1147 114.636 22.9619 111.039 26.8116 107.449C27.9421 106.394 29.3721 105.729 30.8434 106.855C32.3951 108.042 31.716 109.461 30.7992 110.635C27.6522 114.663 24.4979 118.692 21.1724 122.59C20.1832 123.655 18.9259 124.472 17.5146 124.966C15.4194 125.74 13.3938 124.183 13.467 121.533Z" fill="#FF0000"/>
<path d="M47.9366 107.088C50.1679 107.145 51.7899 109.031 50.7974 110.492C48.2696 114.17 45.4926 117.692 42.4838 121.036C41.4059 122.246 39.4705 122.075 38.1015 120.916C37.4756 120.42 37.0661 119.725 36.9509 118.963C36.8356 118.203 37.0226 117.428 37.4764 116.788C38.2978 115.505 39.2743 114.317 40.3868 113.244C42.0348 111.599 43.7759 110.03 45.566 108.522C46.3067 107.976 47.1004 107.496 47.9366 107.088Z" fill="#FF0000"/>
<path d="M28.0018 91.1277C27.5758 92.0104 27.0727 92.8585 26.4974 93.6625C23.6872 96.9511 20.834 100.207 17.9375 103.429C17.3932 103.979 16.7601 104.445 16.0614 104.809C14.615 105.643 13.1444 105.641 11.9781 104.407C10.7732 103.132 11.0407 101.715 12.2487 100.618C16.203 97.0246 20.2027 93.4723 24.2817 90.0038C24.8149 89.55 25.9503 89.4765 26.7304 89.6114C27.1988 89.6926 27.5208 90.5191 28.0018 91.1277Z" fill="#FF0000"/>
<path d="M91.7164 30.8921C95.6462 30.8415 98.6762 32.3486 101.717 34.7232C104.87 37.1847 107.225 39.8101 108.388 43.4795C111.074 51.9669 105.76 58.2148 97.1409 59.3576C90.1562 60.2836 84.2314 57.5866 79.9218 52.4601C76.23 48.0671 76.1303 42.9553 78.6908 38.0432C81.2726 33.0869 85.9235 30.9448 91.7164 30.8921ZM83.4211 44.4902C84.4305 46.1232 85.1549 48.205 86.6588 49.4777C88.2166 50.7959 90.4818 51.4489 92.525 52.1774C95.2092 53.1352 97.5328 52.1207 99.3567 50.3403C101.122 48.6181 101.188 46.4551 100.325 44.2519C98.9657 40.7782 95.7956 39.035 92.6117 37.4627C89.7526 36.051 87.0395 36.8953 85.4097 39.5389C84.5787 40.8843 84.2071 42.4787 83.4211 44.4902Z" fill="black"/>
</g>
<defs>
<clipPath id="clip0_2_614">
<rect width="142" height="134" fill="white"/>
</clipPath>
</defs>
</svg>
